<svg width="44" height="45" viewBox="0 0 44 45" fill="none" xmlns="http://www.w3.org/2000/svg">
<path fill-rule="evenodd" clip-rule="evenodd" d="M31.7687 19.9801C31.1999 19.3726 30.925 18.5469 31.016 17.7197L31.2785 15.3325C24.5108 22.8266 20.3767 25.8892 12.5541 29.8479L11.8489 36.2603C11.5595 38.8914 14.6994 40.4625 16.6317 38.6536L23.9861 31.7687C24.5937 31.2 25.4193 30.925 26.2465 31.016L36.2603 32.1174C38.8913 32.4067 40.4625 29.2668 38.6535 27.3345L31.7687 19.9801Z" fill="#FEC701"></path>
<path d="M7.70593 11.8489C5.07489 11.5595 3.50373 14.6995 5.31267 16.6318L12.1975 23.9862C12.7663 24.5937 13.0412 25.4193 12.9502 26.2465L12.5541 29.8479C20.3767 25.8892 24.5108 22.8266 31.2785 15.3325L32.1173 7.70597C32.4067 5.07494 29.2668 3.50378 27.3345 5.31272L19.9801 12.1976C19.3725 12.7663 18.5469 13.0412 17.7197 12.9503L7.70593 11.8489Z" fill="#FED84D"></path>
</svg>